<mxfile host="app.diagrams.net" modified="2024-01-30T10:22:59.304Z" agent="Mozilla/5.0 (Windows NT 10.0; Win64; x64) AppleWebKit/537.36 (KHTML, like Gecko) Chrome/109.0.0.0 Safari/537.36" etag="5GUjeNSdbIQUKyztorMk" version="23.0.2" type="github">
  <diagram name="Page-1" id="b-GIZEejrQhpl9_5ttwQ">
    <mxGraphModel dx="1467" dy="807" grid="1" gridSize="10" guides="1" tooltips="1" connect="1" arrows="1" fold="1" page="1" pageScale="1" pageWidth="850" pageHeight="1100" math="0" shadow="0">
      <root>
        <mxCell id="0" />
        <mxCell id="1" parent="0" />
        <mxCell id="uQM1A8j70y8SlQ_Vw49t-96" value="" style="group" vertex="1" connectable="0" parent="1">
          <mxGeometry x="390" y="360" width="920" height="669.5" as="geometry" />
        </mxCell>
        <mxCell id="uQM1A8j70y8SlQ_Vw49t-84" value="" style="group" vertex="1" connectable="0" parent="uQM1A8j70y8SlQ_Vw49t-96">
          <mxGeometry y="10" width="340" height="310" as="geometry" />
        </mxCell>
        <mxCell id="uQM1A8j70y8SlQ_Vw49t-14" value="Age" style="ellipse;whiteSpace=wrap;html=1;" vertex="1" parent="uQM1A8j70y8SlQ_Vw49t-84">
          <mxGeometry y="80" width="120" height="40" as="geometry" />
        </mxCell>
        <mxCell id="uQM1A8j70y8SlQ_Vw49t-15" value="Name" style="ellipse;whiteSpace=wrap;html=1;" vertex="1" parent="uQM1A8j70y8SlQ_Vw49t-84">
          <mxGeometry y="160" width="120" height="40" as="geometry" />
        </mxCell>
        <mxCell id="uQM1A8j70y8SlQ_Vw49t-95" value="" style="group" vertex="1" connectable="0" parent="uQM1A8j70y8SlQ_Vw49t-84">
          <mxGeometry x="50" width="290" height="310" as="geometry" />
        </mxCell>
        <mxCell id="uQM1A8j70y8SlQ_Vw49t-5" value="Passenger" style="rounded=0;whiteSpace=wrap;html=1;" vertex="1" parent="uQM1A8j70y8SlQ_Vw49t-95">
          <mxGeometry x="140" y="110" width="150" height="60" as="geometry" />
        </mxCell>
        <mxCell id="uQM1A8j70y8SlQ_Vw49t-9" value="Gender" style="ellipse;whiteSpace=wrap;html=1;" vertex="1" parent="uQM1A8j70y8SlQ_Vw49t-95">
          <mxGeometry x="150" width="120" height="40" as="geometry" />
        </mxCell>
        <mxCell id="uQM1A8j70y8SlQ_Vw49t-13" value="Train no" style="ellipse;whiteSpace=wrap;html=1;" vertex="1" parent="uQM1A8j70y8SlQ_Vw49t-95">
          <mxGeometry width="120" height="40" as="geometry" />
        </mxCell>
        <mxCell id="uQM1A8j70y8SlQ_Vw49t-16" value="ID Proof" style="ellipse;whiteSpace=wrap;html=1;" vertex="1" parent="uQM1A8j70y8SlQ_Vw49t-95">
          <mxGeometry y="250" width="120" height="40" as="geometry" />
        </mxCell>
        <mxCell id="uQM1A8j70y8SlQ_Vw49t-20" value="" style="endArrow=none;html=1;rounded=0;" edge="1" parent="uQM1A8j70y8SlQ_Vw49t-95" source="uQM1A8j70y8SlQ_Vw49t-5" target="uQM1A8j70y8SlQ_Vw49t-9">
          <mxGeometry width="50" height="50" relative="1" as="geometry">
            <mxPoint x="160" y="110" as="sourcePoint" />
            <mxPoint x="170" y="50" as="targetPoint" />
          </mxGeometry>
        </mxCell>
        <mxCell id="uQM1A8j70y8SlQ_Vw49t-21" value="" style="endArrow=none;html=1;rounded=0;" edge="1" parent="uQM1A8j70y8SlQ_Vw49t-95" source="uQM1A8j70y8SlQ_Vw49t-5" target="uQM1A8j70y8SlQ_Vw49t-13">
          <mxGeometry width="50" height="50" relative="1" as="geometry">
            <mxPoint x="126" y="116" as="sourcePoint" />
            <mxPoint x="110" y="50" as="targetPoint" />
          </mxGeometry>
        </mxCell>
        <mxCell id="uQM1A8j70y8SlQ_Vw49t-32" value="" style="endArrow=none;html=1;rounded=0;" edge="1" parent="uQM1A8j70y8SlQ_Vw49t-95" source="uQM1A8j70y8SlQ_Vw49t-16" target="uQM1A8j70y8SlQ_Vw49t-5">
          <mxGeometry width="50" height="50" relative="1" as="geometry">
            <mxPoint x="100" y="220" as="sourcePoint" />
            <mxPoint x="174" y="180" as="targetPoint" />
          </mxGeometry>
        </mxCell>
        <mxCell id="uQM1A8j70y8SlQ_Vw49t-77" value="No of seats" style="ellipse;whiteSpace=wrap;html=1;" vertex="1" parent="uQM1A8j70y8SlQ_Vw49t-95">
          <mxGeometry x="155" y="270" width="120" height="40" as="geometry" />
        </mxCell>
        <mxCell id="uQM1A8j70y8SlQ_Vw49t-83" value="" style="endArrow=none;html=1;rounded=0;" edge="1" parent="uQM1A8j70y8SlQ_Vw49t-95" source="uQM1A8j70y8SlQ_Vw49t-77" target="uQM1A8j70y8SlQ_Vw49t-5">
          <mxGeometry width="50" height="50" relative="1" as="geometry">
            <mxPoint x="280" y="210" as="sourcePoint" />
            <mxPoint x="350" y="200" as="targetPoint" />
          </mxGeometry>
        </mxCell>
        <mxCell id="uQM1A8j70y8SlQ_Vw49t-34" value="" style="endArrow=none;html=1;rounded=0;" edge="1" parent="uQM1A8j70y8SlQ_Vw49t-84" source="uQM1A8j70y8SlQ_Vw49t-14" target="uQM1A8j70y8SlQ_Vw49t-5">
          <mxGeometry width="50" height="50" relative="1" as="geometry">
            <mxPoint x="116" y="170" as="sourcePoint" />
            <mxPoint x="180" y="130" as="targetPoint" />
          </mxGeometry>
        </mxCell>
        <mxCell id="uQM1A8j70y8SlQ_Vw49t-30" value="" style="endArrow=none;html=1;rounded=0;" edge="1" parent="uQM1A8j70y8SlQ_Vw49t-84" source="uQM1A8j70y8SlQ_Vw49t-15" target="uQM1A8j70y8SlQ_Vw49t-5">
          <mxGeometry width="50" height="50" relative="1" as="geometry">
            <mxPoint x="160" y="220" as="sourcePoint" />
            <mxPoint x="220" y="169" as="targetPoint" />
          </mxGeometry>
        </mxCell>
        <mxCell id="uQM1A8j70y8SlQ_Vw49t-85" value="" style="group" vertex="1" connectable="0" parent="uQM1A8j70y8SlQ_Vw49t-96">
          <mxGeometry x="580" width="340" height="280" as="geometry" />
        </mxCell>
        <mxCell id="uQM1A8j70y8SlQ_Vw49t-82" value="No of seats" style="ellipse;whiteSpace=wrap;html=1;" vertex="1" parent="uQM1A8j70y8SlQ_Vw49t-85">
          <mxGeometry x="15" y="240" width="120" height="40" as="geometry" />
        </mxCell>
        <mxCell id="uQM1A8j70y8SlQ_Vw49t-66" value="Train" style="rounded=0;whiteSpace=wrap;html=1;" vertex="1" parent="uQM1A8j70y8SlQ_Vw49t-85">
          <mxGeometry y="120" width="150" height="60" as="geometry" />
        </mxCell>
        <mxCell id="uQM1A8j70y8SlQ_Vw49t-79" value="" style="endArrow=none;html=1;rounded=0;" edge="1" parent="uQM1A8j70y8SlQ_Vw49t-85" source="uQM1A8j70y8SlQ_Vw49t-82" target="uQM1A8j70y8SlQ_Vw49t-66">
          <mxGeometry width="50" height="50" relative="1" as="geometry">
            <mxPoint x="-10" y="240" as="sourcePoint" />
            <mxPoint x="40" y="190" as="targetPoint" />
          </mxGeometry>
        </mxCell>
        <mxCell id="uQM1A8j70y8SlQ_Vw49t-67" value="Train no" style="ellipse;whiteSpace=wrap;html=1;" vertex="1" parent="uQM1A8j70y8SlQ_Vw49t-85">
          <mxGeometry x="150" y="240" width="120" height="40" as="geometry" />
        </mxCell>
        <mxCell id="uQM1A8j70y8SlQ_Vw49t-68" value="Departure Time" style="ellipse;whiteSpace=wrap;html=1;" vertex="1" parent="uQM1A8j70y8SlQ_Vw49t-85">
          <mxGeometry x="220" y="170" width="120" height="40" as="geometry" />
        </mxCell>
        <mxCell id="uQM1A8j70y8SlQ_Vw49t-69" value="Departure Station" style="ellipse;whiteSpace=wrap;html=1;" vertex="1" parent="uQM1A8j70y8SlQ_Vw49t-85">
          <mxGeometry x="220" y="100" width="120" height="40" as="geometry" />
        </mxCell>
        <mxCell id="uQM1A8j70y8SlQ_Vw49t-70" value="Arrival&amp;nbsp; Time" style="ellipse;whiteSpace=wrap;html=1;" vertex="1" parent="uQM1A8j70y8SlQ_Vw49t-85">
          <mxGeometry x="180" y="40" width="120" height="40" as="geometry" />
        </mxCell>
        <mxCell id="uQM1A8j70y8SlQ_Vw49t-71" value="Destination Station" style="ellipse;whiteSpace=wrap;html=1;" vertex="1" parent="uQM1A8j70y8SlQ_Vw49t-85">
          <mxGeometry x="15" width="120" height="40" as="geometry" />
        </mxCell>
        <mxCell id="uQM1A8j70y8SlQ_Vw49t-72" value="" style="endArrow=none;html=1;rounded=0;" edge="1" parent="uQM1A8j70y8SlQ_Vw49t-85" source="uQM1A8j70y8SlQ_Vw49t-66" target="uQM1A8j70y8SlQ_Vw49t-67">
          <mxGeometry width="50" height="50" relative="1" as="geometry">
            <mxPoint x="130" y="180" as="sourcePoint" />
            <mxPoint x="120" y="240" as="targetPoint" />
          </mxGeometry>
        </mxCell>
        <mxCell id="uQM1A8j70y8SlQ_Vw49t-73" value="" style="endArrow=none;html=1;rounded=0;" edge="1" parent="uQM1A8j70y8SlQ_Vw49t-85" source="uQM1A8j70y8SlQ_Vw49t-66" target="uQM1A8j70y8SlQ_Vw49t-68">
          <mxGeometry width="50" height="50" relative="1" as="geometry">
            <mxPoint x="164" y="174" as="sourcePoint" />
            <mxPoint x="180" y="240" as="targetPoint" />
          </mxGeometry>
        </mxCell>
        <mxCell id="uQM1A8j70y8SlQ_Vw49t-74" value="" style="endArrow=none;html=1;rounded=0;" edge="1" parent="uQM1A8j70y8SlQ_Vw49t-85" source="uQM1A8j70y8SlQ_Vw49t-70" target="uQM1A8j70y8SlQ_Vw49t-66">
          <mxGeometry width="50" height="50" relative="1" as="geometry">
            <mxPoint x="180" y="70" as="sourcePoint" />
            <mxPoint x="120" y="121" as="targetPoint" />
          </mxGeometry>
        </mxCell>
        <mxCell id="uQM1A8j70y8SlQ_Vw49t-75" value="" style="endArrow=none;html=1;rounded=0;" edge="1" parent="uQM1A8j70y8SlQ_Vw49t-85" source="uQM1A8j70y8SlQ_Vw49t-71" target="uQM1A8j70y8SlQ_Vw49t-66">
          <mxGeometry width="50" height="50" relative="1" as="geometry">
            <mxPoint x="190" y="70" as="sourcePoint" />
            <mxPoint x="116" y="110" as="targetPoint" />
          </mxGeometry>
        </mxCell>
        <mxCell id="uQM1A8j70y8SlQ_Vw49t-76" value="" style="endArrow=none;html=1;rounded=0;" edge="1" parent="uQM1A8j70y8SlQ_Vw49t-85" source="uQM1A8j70y8SlQ_Vw49t-69" target="uQM1A8j70y8SlQ_Vw49t-66">
          <mxGeometry width="50" height="50" relative="1" as="geometry">
            <mxPoint x="224" y="120" as="sourcePoint" />
            <mxPoint x="160" y="160" as="targetPoint" />
          </mxGeometry>
        </mxCell>
        <mxCell id="uQM1A8j70y8SlQ_Vw49t-90" style="edgeStyle=orthogonalEdgeStyle;rounded=0;orthogonalLoop=1;jettySize=auto;html=1;exitX=1;exitY=0.5;exitDx=0;exitDy=0;" edge="1" parent="uQM1A8j70y8SlQ_Vw49t-96" source="uQM1A8j70y8SlQ_Vw49t-86">
          <mxGeometry relative="1" as="geometry">
            <mxPoint x="580.0000000000002" y="150.47368421052636" as="targetPoint" />
          </mxGeometry>
        </mxCell>
        <mxCell id="uQM1A8j70y8SlQ_Vw49t-91" style="edgeStyle=orthogonalEdgeStyle;rounded=0;orthogonalLoop=1;jettySize=auto;html=1;exitX=0;exitY=0.5;exitDx=0;exitDy=0;" edge="1" parent="uQM1A8j70y8SlQ_Vw49t-96" source="uQM1A8j70y8SlQ_Vw49t-86">
          <mxGeometry relative="1" as="geometry">
            <mxPoint x="340" y="150.47368421052636" as="targetPoint" />
          </mxGeometry>
        </mxCell>
        <mxCell id="uQM1A8j70y8SlQ_Vw49t-86" value="Payment" style="rhombus;whiteSpace=wrap;html=1;" vertex="1" parent="uQM1A8j70y8SlQ_Vw49t-96">
          <mxGeometry x="420" y="110" width="80" height="80" as="geometry" />
        </mxCell>
        <mxCell id="uQM1A8j70y8SlQ_Vw49t-92" value="" style="group;rotation=90;" vertex="1" connectable="0" parent="uQM1A8j70y8SlQ_Vw49t-96">
          <mxGeometry x="300" y="360" width="340" height="279" as="geometry" />
        </mxCell>
        <mxCell id="uQM1A8j70y8SlQ_Vw49t-4" value="Payment" style="rounded=0;whiteSpace=wrap;html=1;rotation=90;" vertex="1" parent="uQM1A8j70y8SlQ_Vw49t-92">
          <mxGeometry x="85" y="15" width="150" height="60" as="geometry" />
        </mxCell>
        <mxCell id="uQM1A8j70y8SlQ_Vw49t-39" value="Amount" style="ellipse;whiteSpace=wrap;html=1;rotation=90;" vertex="1" parent="uQM1A8j70y8SlQ_Vw49t-92">
          <mxGeometry x="140" y="210" width="120" height="40" as="geometry" />
        </mxCell>
        <mxCell id="uQM1A8j70y8SlQ_Vw49t-40" value="Payment ID" style="ellipse;whiteSpace=wrap;html=1;rotation=90;" vertex="1" parent="uQM1A8j70y8SlQ_Vw49t-92">
          <mxGeometry x="210" y="110" width="120" height="40" as="geometry" />
        </mxCell>
        <mxCell id="uQM1A8j70y8SlQ_Vw49t-41" value="PNR number" style="ellipse;whiteSpace=wrap;html=1;rotation=90;" vertex="1" parent="uQM1A8j70y8SlQ_Vw49t-92">
          <mxGeometry x="70" y="210" width="120" height="40" as="geometry" />
        </mxCell>
        <mxCell id="uQM1A8j70y8SlQ_Vw49t-42" value="Payment&amp;nbsp; Method" style="ellipse;whiteSpace=wrap;html=1;rotation=90;" vertex="1" parent="uQM1A8j70y8SlQ_Vw49t-92">
          <mxGeometry y="119.5" width="120" height="40" as="geometry" />
        </mxCell>
        <mxCell id="uQM1A8j70y8SlQ_Vw49t-43" value="" style="endArrow=none;html=1;rounded=0;" edge="1" parent="uQM1A8j70y8SlQ_Vw49t-92" source="uQM1A8j70y8SlQ_Vw49t-4" target="uQM1A8j70y8SlQ_Vw49t-42">
          <mxGeometry width="50" height="50" relative="1" as="geometry">
            <mxPoint x="90" y="110" as="sourcePoint" />
            <mxPoint x="140" y="160" as="targetPoint" />
          </mxGeometry>
        </mxCell>
        <mxCell id="uQM1A8j70y8SlQ_Vw49t-44" value="" style="endArrow=none;html=1;rounded=0;" edge="1" parent="uQM1A8j70y8SlQ_Vw49t-92" source="uQM1A8j70y8SlQ_Vw49t-4" target="uQM1A8j70y8SlQ_Vw49t-41">
          <mxGeometry width="50" height="50" relative="1" as="geometry">
            <mxPoint x="200" y="100" as="sourcePoint" />
            <mxPoint x="240" y="150" as="targetPoint" />
          </mxGeometry>
        </mxCell>
        <mxCell id="uQM1A8j70y8SlQ_Vw49t-48" value="" style="endArrow=none;html=1;rounded=0;" edge="1" parent="uQM1A8j70y8SlQ_Vw49t-92" source="uQM1A8j70y8SlQ_Vw49t-4" target="uQM1A8j70y8SlQ_Vw49t-39">
          <mxGeometry width="50" height="50" relative="1" as="geometry">
            <mxPoint x="200" y="-20" as="sourcePoint" />
            <mxPoint x="250" y="30" as="targetPoint" />
          </mxGeometry>
        </mxCell>
        <mxCell id="uQM1A8j70y8SlQ_Vw49t-49" value="" style="endArrow=none;html=1;rounded=0;" edge="1" parent="uQM1A8j70y8SlQ_Vw49t-92" source="uQM1A8j70y8SlQ_Vw49t-4" target="uQM1A8j70y8SlQ_Vw49t-40">
          <mxGeometry width="50" height="50" relative="1" as="geometry">
            <mxPoint x="200" y="45" as="sourcePoint" />
            <mxPoint x="220" y="-40" as="targetPoint" />
          </mxGeometry>
        </mxCell>
        <mxCell id="uQM1A8j70y8SlQ_Vw49t-94" style="edgeStyle=orthogonalEdgeStyle;rounded=0;orthogonalLoop=1;jettySize=auto;html=1;exitX=0.5;exitY=1;exitDx=0;exitDy=0;entryX=0;entryY=0.5;entryDx=0;entryDy=0;" edge="1" parent="uQM1A8j70y8SlQ_Vw49t-96" source="uQM1A8j70y8SlQ_Vw49t-86" target="uQM1A8j70y8SlQ_Vw49t-4">
          <mxGeometry relative="1" as="geometry" />
        </mxCell>
      </root>
    </mxGraphModel>
  </diagram>
</mxfile>
